<mxfile host="app.diagrams.net" modified="2024-01-31T15:42:15.149Z" agent="Mozilla/5.0 (Windows NT 10.0; Win64; x64) AppleWebKit/537.36 (KHTML, like Gecko) Chrome/120.0.0.0 Safari/537.36" version="23.0.2" etag="y8jeAMW1SIcVj2yLOoJs" type="github">
  <diagram name="Page-1" id="y4iKIIo4qXn7L3rNt_JJ">
    <mxGraphModel>
      <root>
        <mxCell id="0" />
        <mxCell id="1" parent="0" />
      </root>
    </mxGraphModel>
  </diagram>
</mxfile>
